<mxfile host="app.diagrams.net" modified="2023-03-12T12:53:07.309Z" agent="5.0 (Macintosh; Intel Mac OS X 10_15_7) AppleWebKit/537.36 (KHTML, like Gecko) Chrome/110.0.0.0 Safari/537.36 Edg/110.0.1587.63" etag="o_81eGuTVKxXm7HdbviV" version="21.0.6" type="github">
  <diagram name="第 1 页" id="EuGckAiK5d1UZ23b8joW">
    <mxGraphModel dx="1434" dy="828" grid="1" gridSize="10" guides="1" tooltips="1" connect="1" arrows="1" fold="1" page="1" pageScale="1" pageWidth="827" pageHeight="1169" math="0" shadow="0">
      <root>
        <mxCell id="0" />
        <mxCell id="1" parent="0" />
        <mxCell id="5vhcGnZn5Y5xaNcgVLtw-18" style="edgeStyle=orthogonalEdgeStyle;rounded=0;orthogonalLoop=1;jettySize=auto;html=1;exitX=1;exitY=0.5;exitDx=0;exitDy=0;entryX=0;entryY=0.5;entryDx=0;entryDy=0;curved=1;" edge="1" parent="1" source="5vhcGnZn5Y5xaNcgVLtw-11" target="5vhcGnZn5Y5xaNcgVLtw-9">
          <mxGeometry relative="1" as="geometry" />
        </mxCell>
        <mxCell id="5vhcGnZn5Y5xaNcgVLtw-19" style="edgeStyle=orthogonalEdgeStyle;rounded=0;orthogonalLoop=1;jettySize=auto;html=1;exitX=1;exitY=0.5;exitDx=0;exitDy=0;entryX=0;entryY=0.5;entryDx=0;entryDy=0;curved=1;" edge="1" parent="1" source="5vhcGnZn5Y5xaNcgVLtw-11" target="5vhcGnZn5Y5xaNcgVLtw-10">
          <mxGeometry relative="1" as="geometry" />
        </mxCell>
        <mxCell id="5vhcGnZn5Y5xaNcgVLtw-11" value="Login Way" style="rounded=0;whiteSpace=wrap;html=1;verticalAlign=top;" vertex="1" parent="1">
          <mxGeometry x="330" y="160" width="180" height="360" as="geometry" />
        </mxCell>
        <mxCell id="5vhcGnZn5Y5xaNcgVLtw-12" style="edgeStyle=orthogonalEdgeStyle;rounded=0;orthogonalLoop=1;jettySize=auto;html=1;exitX=1;exitY=0.5;exitDx=0;exitDy=0;entryX=0;entryY=0.5;entryDx=0;entryDy=0;" edge="1" parent="1" source="5vhcGnZn5Y5xaNcgVLtw-1" target="5vhcGnZn5Y5xaNcgVLtw-4">
          <mxGeometry relative="1" as="geometry" />
        </mxCell>
        <mxCell id="5vhcGnZn5Y5xaNcgVLtw-1" value="Start" style="ellipse;whiteSpace=wrap;html=1;aspect=fixed;fillColor=#dae8fc;strokeColor=#6c8ebf;fontSize=16;" vertex="1" parent="1">
          <mxGeometry x="20" y="300" width="80" height="80" as="geometry" />
        </mxCell>
        <mxCell id="5vhcGnZn5Y5xaNcgVLtw-2" value="End" style="ellipse;whiteSpace=wrap;html=1;aspect=fixed;fillColor=#dae8fc;strokeColor=#6c8ebf;fontSize=16;" vertex="1" parent="1">
          <mxGeometry x="800" y="310" width="80" height="80" as="geometry" />
        </mxCell>
        <mxCell id="5vhcGnZn5Y5xaNcgVLtw-13" style="edgeStyle=orthogonalEdgeStyle;rounded=0;orthogonalLoop=1;jettySize=auto;html=1;exitX=1;exitY=0.5;exitDx=0;exitDy=0;entryX=0;entryY=0.5;entryDx=0;entryDy=0;" edge="1" parent="1" source="5vhcGnZn5Y5xaNcgVLtw-4" target="5vhcGnZn5Y5xaNcgVLtw-11">
          <mxGeometry relative="1" as="geometry" />
        </mxCell>
        <mxCell id="5vhcGnZn5Y5xaNcgVLtw-4" value="create instance" style="rounded=1;whiteSpace=wrap;html=1;fontSize=16;fillColor=#dae8fc;strokeColor=#6c8ebf;" vertex="1" parent="1">
          <mxGeometry x="150" y="310" width="120" height="60" as="geometry" />
        </mxCell>
        <mxCell id="5vhcGnZn5Y5xaNcgVLtw-5" value="sms" style="rounded=1;whiteSpace=wrap;html=1;fontSize=16;fillColor=#dae8fc;strokeColor=#6c8ebf;" vertex="1" parent="1">
          <mxGeometry x="360" y="200" width="120" height="60" as="geometry" />
        </mxCell>
        <mxCell id="5vhcGnZn5Y5xaNcgVLtw-6" value="third oauth" style="rounded=1;whiteSpace=wrap;html=1;fontSize=16;fillColor=#dae8fc;strokeColor=#6c8ebf;" vertex="1" parent="1">
          <mxGeometry x="360" y="280" width="120" height="60" as="geometry" />
        </mxCell>
        <mxCell id="5vhcGnZn5Y5xaNcgVLtw-7" value="password" style="rounded=1;whiteSpace=wrap;html=1;fontSize=16;fillColor=#dae8fc;strokeColor=#6c8ebf;" vertex="1" parent="1">
          <mxGeometry x="360" y="360" width="120" height="60" as="geometry" />
        </mxCell>
        <mxCell id="5vhcGnZn5Y5xaNcgVLtw-8" value="app scan" style="rounded=1;whiteSpace=wrap;html=1;fontSize=16;fillColor=#dae8fc;strokeColor=#6c8ebf;" vertex="1" parent="1">
          <mxGeometry x="360" y="440" width="120" height="60" as="geometry" />
        </mxCell>
        <mxCell id="5vhcGnZn5Y5xaNcgVLtw-14" style="edgeStyle=orthogonalEdgeStyle;rounded=0;orthogonalLoop=1;jettySize=auto;html=1;exitX=1;exitY=0.5;exitDx=0;exitDy=0;entryX=0;entryY=0.5;entryDx=0;entryDy=0;curved=1;" edge="1" parent="1" source="5vhcGnZn5Y5xaNcgVLtw-9" target="5vhcGnZn5Y5xaNcgVLtw-2">
          <mxGeometry relative="1" as="geometry" />
        </mxCell>
        <mxCell id="5vhcGnZn5Y5xaNcgVLtw-9" value="login" style="rounded=1;whiteSpace=wrap;html=1;fontSize=16;fillColor=#dae8fc;strokeColor=#6c8ebf;" vertex="1" parent="1">
          <mxGeometry x="590" y="270" width="120" height="60" as="geometry" />
        </mxCell>
        <mxCell id="5vhcGnZn5Y5xaNcgVLtw-16" style="edgeStyle=orthogonalEdgeStyle;rounded=0;orthogonalLoop=1;jettySize=auto;html=1;exitX=1;exitY=0.5;exitDx=0;exitDy=0;entryX=0;entryY=0.5;entryDx=0;entryDy=0;curved=1;" edge="1" parent="1" source="5vhcGnZn5Y5xaNcgVLtw-10" target="5vhcGnZn5Y5xaNcgVLtw-2">
          <mxGeometry relative="1" as="geometry" />
        </mxCell>
        <mxCell id="5vhcGnZn5Y5xaNcgVLtw-10" value="register" style="rounded=1;whiteSpace=wrap;html=1;fontSize=16;fillColor=#dae8fc;strokeColor=#6c8ebf;" vertex="1" parent="1">
          <mxGeometry x="590" y="370" width="120" height="60" as="geometry" />
        </mxCell>
        <mxCell id="5vhcGnZn5Y5xaNcgVLtw-20" value="" style="endArrow=classic;dashed=1;html=1;dashPattern=1 3;strokeWidth=2;rounded=0;endFill=1;fillColor=#f8cecc;strokeColor=#FF0000;" edge="1" parent="1">
          <mxGeometry width="50" height="50" relative="1" as="geometry">
            <mxPoint x="120" y="340" as="sourcePoint" />
            <mxPoint x="120" y="140" as="targetPoint" />
          </mxGeometry>
        </mxCell>
        <mxCell id="5vhcGnZn5Y5xaNcgVLtw-21" value="beforeCreate" style="rounded=1;whiteSpace=wrap;html=1;strokeColor=#FF0000;fontColor=#FF0000;fontSize=16;" vertex="1" parent="1">
          <mxGeometry x="60" y="80" width="120" height="60" as="geometry" />
        </mxCell>
        <mxCell id="5vhcGnZn5Y5xaNcgVLtw-22" value="created" style="rounded=1;whiteSpace=wrap;html=1;strokeColor=#FF0000;fontColor=#FF0000;fontSize=16;" vertex="1" parent="1">
          <mxGeometry x="220" y="80" width="120" height="60" as="geometry" />
        </mxCell>
        <mxCell id="5vhcGnZn5Y5xaNcgVLtw-23" value="" style="endArrow=classic;dashed=1;html=1;dashPattern=1 3;strokeWidth=2;rounded=0;endFill=1;fillColor=#f8cecc;strokeColor=#FF0000;" edge="1" parent="1">
          <mxGeometry width="50" height="50" relative="1" as="geometry">
            <mxPoint x="280" y="340" as="sourcePoint" />
            <mxPoint x="280" y="140" as="targetPoint" />
          </mxGeometry>
        </mxCell>
        <mxCell id="5vhcGnZn5Y5xaNcgVLtw-24" value="beforeLogin" style="rounded=1;whiteSpace=wrap;html=1;strokeColor=#FF0000;fontColor=#FF0000;fontSize=16;" vertex="1" parent="1">
          <mxGeometry x="500" y="80" width="120" height="60" as="geometry" />
        </mxCell>
        <mxCell id="5vhcGnZn5Y5xaNcgVLtw-25" value="afterLogin" style="rounded=1;whiteSpace=wrap;html=1;strokeColor=#FF0000;fontColor=#FF0000;fontSize=16;" vertex="1" parent="1">
          <mxGeometry x="670" y="80" width="120" height="60" as="geometry" />
        </mxCell>
        <mxCell id="5vhcGnZn5Y5xaNcgVLtw-26" value="beforeRegister" style="rounded=1;whiteSpace=wrap;html=1;strokeColor=#FF0000;fontColor=#FF0000;fontSize=16;" vertex="1" parent="1">
          <mxGeometry x="500" y="530" width="120" height="60" as="geometry" />
        </mxCell>
        <mxCell id="5vhcGnZn5Y5xaNcgVLtw-27" value="afterRegister" style="rounded=1;whiteSpace=wrap;html=1;strokeColor=#FF0000;fontColor=#FF0000;fontSize=16;" vertex="1" parent="1">
          <mxGeometry x="670" y="530" width="120" height="60" as="geometry" />
        </mxCell>
        <mxCell id="5vhcGnZn5Y5xaNcgVLtw-28" value="" style="endArrow=classic;dashed=1;html=1;dashPattern=1 3;strokeWidth=2;rounded=0;endFill=1;fillColor=#f8cecc;strokeColor=#FF0000;" edge="1" parent="1">
          <mxGeometry width="50" height="50" relative="1" as="geometry">
            <mxPoint x="560" y="300" as="sourcePoint" />
            <mxPoint x="559.5" y="140" as="targetPoint" />
          </mxGeometry>
        </mxCell>
        <mxCell id="5vhcGnZn5Y5xaNcgVLtw-29" value="" style="endArrow=classic;dashed=1;html=1;dashPattern=1 3;strokeWidth=2;rounded=0;endFill=1;fillColor=#f8cecc;strokeColor=#FF0000;" edge="1" parent="1">
          <mxGeometry width="50" height="50" relative="1" as="geometry">
            <mxPoint x="730" y="300" as="sourcePoint" />
            <mxPoint x="729.5" y="140" as="targetPoint" />
          </mxGeometry>
        </mxCell>
        <mxCell id="5vhcGnZn5Y5xaNcgVLtw-30" value="" style="endArrow=classic;dashed=1;html=1;dashPattern=1 3;strokeWidth=2;rounded=0;endFill=1;fillColor=#f8cecc;strokeColor=#FF0000;entryX=0.5;entryY=0;entryDx=0;entryDy=0;" edge="1" parent="1" target="5vhcGnZn5Y5xaNcgVLtw-26">
          <mxGeometry width="50" height="50" relative="1" as="geometry">
            <mxPoint x="560" y="400" as="sourcePoint" />
            <mxPoint x="569.5" y="150" as="targetPoint" />
          </mxGeometry>
        </mxCell>
        <mxCell id="5vhcGnZn5Y5xaNcgVLtw-31" value="" style="endArrow=classic;dashed=1;html=1;dashPattern=1 3;strokeWidth=2;rounded=0;endFill=1;fillColor=#f8cecc;strokeColor=#FF0000;entryX=0.5;entryY=0;entryDx=0;entryDy=0;" edge="1" parent="1">
          <mxGeometry width="50" height="50" relative="1" as="geometry">
            <mxPoint x="729.5" y="400" as="sourcePoint" />
            <mxPoint x="729.5" y="530" as="targetPoint" />
          </mxGeometry>
        </mxCell>
      </root>
    </mxGraphModel>
  </diagram>
</mxfile>
